<!DOCTYPE svg PUBLIC "-//W3C//DTD SVG 1.1//EN" "http://www.w3.org/Graphics/SVG/1.1/DTD/svg11.dtd">
<!-- Uploaded to: SVG Repo, www.svgrepo.com, Transformed by: SVG Repo Mixer Tools -->
<svg width="800px" height="800px" viewBox="0 0 16 16" xmlns="http://www.w3.org/2000/svg" fill="none">
<g id="SVGRepo_bgCarrier" stroke-width="0"/>
<g id="SVGRepo_tracerCarrier" stroke-linecap="round" stroke-linejoin="round"/>
<g id="SVGRepo_iconCarrier"> <g fill="#ffffff"> <path fill-rule="evenodd" d="M6 2a3.5 3.5 0 100 7 3.5 3.5 0 000-7zM4 5.5a2 2 0 114 0 2 2 0 01-4 0z" clip-rule="evenodd"/> <path d="M4.25 10A3.75 3.75 0 00.5 13.75v.5a.75.75 0 001.5 0v-.5a2.25 2.25 0 012.25-2.25h3.5A2.25 2.25 0 0110 13.75v.5a.75.75 0 001.5 0v-.5A3.75 3.75 0 007.75 10h-3.5zM10.25 8.25A.75.75 0 0111 7.5h1v-1a.75.75 0 011.5 0v1h1a.75.75 0 010 1.5h-1v1a.75.75 0 01-1.5 0V9h-1a.75.75 0 01-.75-.75z"/> </g> </g>
</svg>