<!DOCTYPE svg PUBLIC "-//W3C//DTD SVG 1.1//EN" "http://www.w3.org/Graphics/SVG/1.1/DTD/svg11.dtd">
<!-- Uploaded to: SVG Repo, www.svgrepo.com, Transformed by: SVG Repo Mixer Tools -->
<svg fill="#292D32" width="800px" height="800px" viewBox="0 0 24 24" id="eraser-3" data-name="Flat Color" xmlns="http://www.w3.org/2000/svg" class="icon flat-color" stroke="#292D32">
<g id="SVGRepo_bgCarrier" stroke-width="0"/>
<g id="SVGRepo_tracerCarrier" stroke-linecap="round" stroke-linejoin="round"/>
<g id="SVGRepo_iconCarrier">
<path id="primary" d="M2.59,12.93,12.93,2.59a2,2,0,0,1,2.83,0l5.65,5.65a2,2,0,0,1,0,2.83L11.07,21.41a2,2,0,0,1-2.83,0L2.59,15.76a2,2,0,0,1,0-2.83Z" style="fill: #292D32;"/>
<path id="secondary" d="M2.59,12.93,5.83,9.69l8.48,8.48L12.48,20H18a1,1,0,0,1,0,2H9.65a2,2,0,0,1-1.41-.59L2.59,15.76a2,2,0,0,1,0-2.83Z" style="fill: #FFFFFF;"/>
</g>
</svg>